<svg width="80" height="15" fill="none" xmlns="http://www.w3.org/2000/svg"><path d="M2.507 1.203V14H.3V1.203h2.206Zm5.22 5.599V8.55H1.945V6.8h5.784Zm.73-5.599v1.758H1.944V1.203h6.513Zm6.97 10.89V7.558c0-.34-.062-.633-.185-.88a1.292 1.292 0 0 0-.563-.57c-.246-.135-.556-.203-.931-.203a2.11 2.11 0 0 0-.897.176 1.45 1.45 0 0 0-.589.475c-.14.199-.21.424-.21.676h-2.11c0-.375.09-.738.272-1.09.182-.351.446-.664.791-.94a3.95 3.95 0 0 1 1.24-.65 5.154 5.154 0 0 1 1.617-.238c.715 0 1.348.12 1.898.36.557.241.994.604 1.31 1.09.322.481.483 1.085.483 1.811v4.228c0 .433.03.823.088 1.169.065.34.156.635.273.887V14h-2.171a3.753 3.753 0 0 1-.238-.87 7.11 7.11 0 0 1-.079-1.037Zm.307-3.876.018 1.31h-1.52a4.22 4.22 0 0 0-1.038.114 2.13 2.13 0 0 0-.747.316c-.2.14-.349.31-.448.51-.1.199-.15.425-.15.677 0 .252.059.483.176.694.117.205.287.366.51.483.228.117.504.176.826.176.434 0 .811-.088 1.134-.264.328-.181.586-.401.773-.659.188-.264.287-.512.299-.747l.686.94c-.07.24-.19.499-.36.774-.17.275-.393.54-.669.791a3.32 3.32 0 0 1-.975.606c-.375.159-.809.238-1.301.238-.621 0-1.175-.123-1.661-.37a2.952 2.952 0 0 1-1.143-1.01 2.62 2.62 0 0 1-.413-1.45c0-.504.094-.95.281-1.336a2.62 2.62 0 0 1 .844-.985c.375-.263.832-.463 1.371-.597a7.334 7.334 0 0 1 1.846-.211h1.661Zm8.279 4.271c.346 0 .656-.067.932-.202.28-.14.506-.334.676-.58.176-.246.273-.53.29-.852h1.995a2.97 2.97 0 0 1-.544 1.678 3.78 3.78 0 0 1-1.398 1.204c-.58.293-1.221.44-1.925.44-.726 0-1.359-.123-1.898-.37a3.752 3.752 0 0 1-1.345-1.036 4.562 4.562 0 0 1-.808-1.521 6.273 6.273 0 0 1-.264-1.846v-.307c0-.657.088-1.272.264-1.846.181-.58.45-1.09.808-1.53.358-.439.806-.782 1.345-1.028.539-.252 1.169-.378 1.89-.378.761 0 1.43.153 2.004.457a3.376 3.376 0 0 1 1.353 1.257c.334.534.507 1.155.518 1.864h-1.995a2.125 2.125 0 0 0-.263-.95 1.741 1.741 0 0 0-.65-.685c-.276-.17-.607-.255-.994-.255-.428 0-.782.088-1.063.264-.281.17-.501.404-.66.703a3.429 3.429 0 0 0-.342.993 6.486 6.486 0 0 0-.097 1.134v.307c0 .393.032.774.097 1.143.064.369.175.7.334.993.164.287.387.519.668.694.281.17.638.255 1.072.255Zm10.072 1.688c-.703 0-1.339-.114-1.907-.343a4.212 4.212 0 0 1-1.442-.976 4.325 4.325 0 0 1-.905-1.467 5.138 5.138 0 0 1-.316-1.82V9.22c0-.744.108-1.418.325-2.022.217-.603.518-1.119.905-1.547a3.891 3.891 0 0 1 1.371-.993 4.264 4.264 0 0 1 1.714-.343c.68 0 1.274.115 1.784.343.51.229.932.551 1.266.967.34.41.592.9.756 1.468.17.568.255 1.195.255 1.88v.906h-7.348v-1.52h5.256V8.19a2.972 2.972 0 0 0-.229-1.072 1.821 1.821 0 0 0-.624-.808c-.281-.206-.656-.308-1.125-.308a1.91 1.91 0 0 0-.94.228 1.86 1.86 0 0 0-.677.642 3.382 3.382 0 0 0-.422 1.02c-.094.392-.14.835-.14 1.327v.351c0 .416.055.803.166 1.16.118.352.288.66.51.923.223.264.492.472.809.624.316.147.677.22 1.08.22.51 0 .965-.102 1.363-.307a3.121 3.121 0 0 0 1.037-.87l1.117 1.08a4.352 4.352 0 0 1-.8.862c-.328.27-.73.489-1.204.659-.47.17-1.014.255-1.635.255ZM39.912.5h2.118v11.47L41.828 14h-1.916V.5Zm8.323 8.657v.185c0 .703-.08 1.35-.237 1.942a4.475 4.475 0 0 1-.703 1.53c-.311.433-.698.77-1.16 1.01-.458.235-.988.352-1.591.352-.592 0-1.108-.111-1.547-.334a3.077 3.077 0 0 1-1.108-.95c-.293-.41-.53-.899-.712-1.467a9.701 9.701 0 0 1-.386-1.881v-.589a9.521 9.521 0 0 1 .386-1.88 5.262 5.262 0 0 1 .712-1.469 3.066 3.066 0 0 1 1.099-.958c.44-.222.952-.334 1.538-.334.61 0 1.145.118 1.608.352.47.234.859.568 1.17 1.002.31.428.541.937.694 1.53.158.591.237 1.244.237 1.96Zm-2.118.185v-.185c0-.428-.035-.829-.106-1.204a3.161 3.161 0 0 0-.351-1.002 1.762 1.762 0 0 0-.65-.677c-.27-.17-.607-.254-1.011-.254-.375 0-.698.064-.967.193-.27.129-.495.305-.677.527a2.61 2.61 0 0 0-.43.774c-.1.293-.168.609-.203.949v1.59c.053.44.164.845.334 1.214.176.363.422.656.739.879.316.216.723.325 1.221.325.393 0 .724-.08.993-.238.27-.158.484-.378.642-.659.164-.287.281-.62.351-1.002.077-.38.115-.79.115-1.23Zm3.867.009v-.203c0-.685.1-1.32.298-1.907.2-.592.487-1.104.862-1.538.38-.44.843-.78 1.388-1.02.551-.245 1.172-.369 1.864-.369.697 0 1.318.123 1.863.37.55.24 1.017.58 1.397 1.02.381.433.671.945.87 1.537.2.586.3 1.222.3 1.907v.203c0 .685-.1 1.32-.3 1.907-.199.586-.489 1.098-.87 1.538a4.03 4.03 0 0 1-1.388 1.02c-.545.24-1.163.36-1.855.36-.697 0-1.321-.12-1.872-.36a4.032 4.032 0 0 1-1.388-1.02c-.381-.44-.671-.952-.87-1.538a5.89 5.89 0 0 1-.3-1.907Zm2.118-.203v.203c0 .427.044.832.132 1.212.087.381.225.715.413 1.002.187.287.427.513.72.677.293.164.642.246 1.046.246.393 0 .733-.082 1.02-.246.293-.164.533-.39.72-.677.188-.287.326-.62.414-1.002.093-.38.14-.785.14-1.212v-.203c0-.421-.047-.82-.14-1.195a3.07 3.07 0 0 0-.422-1.01 2.016 2.016 0 0 0-.721-.686c-.287-.17-.63-.255-1.028-.255-.399 0-.744.085-1.037.255a2.04 2.04 0 0 0-.712.685c-.188.293-.325.63-.413 1.011a5.226 5.226 0 0 0-.132 1.195Zm8.455.203v-.203c0-.685.1-1.32.298-1.907.2-.592.487-1.104.862-1.538.38-.44.843-.78 1.388-1.02.551-.245 1.172-.369 1.864-.369.697 0 1.318.123 1.863.37.55.24 1.017.58 1.397 1.02.381.433.671.945.87 1.537.2.586.3 1.222.3 1.907v.203c0 .685-.1 1.32-.3 1.907-.199.586-.489 1.098-.87 1.538a4.03 4.03 0 0 1-1.388 1.02c-.545.24-1.163.36-1.855.36-.697 0-1.321-.12-1.872-.36a4.032 4.032 0 0 1-1.389-1.02c-.38-.44-.67-.952-.87-1.538a5.89 5.89 0 0 1-.298-1.907Zm2.118-.203v.203c0 .427.044.832.132 1.212.087.381.225.715.413 1.002.187.287.427.513.72.677.293.164.642.246 1.046.246.393 0 .733-.082 1.02-.246.293-.164.533-.39.72-.677.188-.287.326-.62.413-1.002.094-.38.141-.785.141-1.212v-.203c0-.421-.047-.82-.14-1.195a3.07 3.07 0 0 0-.422-1.01 2.016 2.016 0 0 0-.721-.686c-.287-.17-.63-.255-1.028-.255-.399 0-.744.085-1.037.255a2.04 2.04 0 0 0-.712.685c-.188.293-.326.63-.413 1.011a5.225 5.225 0 0 0-.132 1.195ZM73.669.5V14h-2.126V.5h2.126Zm5.907 3.99-4.14 4.588-2.268 2.32-.553-1.793 1.714-2.118 2.689-2.997h2.558Zm-2.1 9.51L74.39 9.535l1.336-1.485L79.927 14h-2.452Z" fill="#2196F3"/></svg>