<svg width="83" height="17" fill="none" xmlns="http://www.w3.org/2000/svg"><path d="M2.647 13H.433V.203h2.214V13Zm4.87-9.51.06 1.099c.704-.85 1.627-1.275 2.77-1.275 1.98 0 2.988 1.134 3.023 3.402V13h-2.136V6.839c0-.604-.132-1.049-.396-1.336-.257-.293-.682-.44-1.274-.44-.861 0-1.503.39-1.925 1.17V13H5.504V3.49h2.012Zm13.727 6.926c0-.38-.158-.67-.474-.87-.31-.2-.83-.375-1.556-.527-.726-.153-1.333-.346-1.82-.58-1.066-.516-1.599-1.263-1.599-2.242 0-.82.346-1.506 1.037-2.056.692-.551 1.57-.827 2.637-.827 1.137 0 2.054.282 2.751.844.703.563 1.055 1.292 1.055 2.189h-2.136c0-.41-.152-.75-.457-1.02-.305-.275-.71-.413-1.213-.413-.469 0-.853.108-1.151.325-.293.217-.44.507-.44.87 0 .329.138.583.413.765.276.182.832.366 1.67.554.838.181 1.494.401 1.969.659.48.252.835.557 1.063.914.235.357.352.791.352 1.3 0 .856-.354 1.55-1.063 2.084-.71.527-1.638.79-2.787.79-.779 0-1.473-.14-2.083-.421-.609-.281-1.084-.668-1.423-1.16a2.746 2.746 0 0 1-.51-1.591h2.074c.03.504.22.893.571 1.169.352.27.818.404 1.398.404.562 0 .99-.105 1.283-.316.293-.217.44-.498.44-.844Zm7.005-9.237V3.49h1.679v1.582h-1.68v5.309c0 .363.071.627.212.79.146.16.404.238.773.238.246 0 .495-.03.747-.088v1.653a5.259 5.259 0 0 1-1.406.202c-1.64 0-2.46-.905-2.46-2.716V5.072h-1.565V3.49h1.564V1.18h2.136ZM37.609 13c-.094-.182-.176-.477-.246-.888a3.325 3.325 0 0 1-2.496 1.064c-.955 0-1.735-.273-2.338-.818-.604-.545-.905-1.218-.905-2.021 0-1.014.375-1.79 1.125-2.33.755-.544 1.834-.817 3.234-.817h1.31v-.624c0-.492-.138-.884-.413-1.177-.276-.3-.695-.449-1.257-.449-.487 0-.885.123-1.196.37-.31.24-.465.547-.465.922h-2.136c0-.521.173-1.007.518-1.459.346-.457.815-.814 1.407-1.072.597-.258 1.262-.387 1.995-.387 1.113 0 2 .282 2.663.844.662.557 1.002 1.342 1.02 2.356v4.289c0 .855.12 1.538.36 2.048V13h-2.18Zm-2.347-1.538c.422 0 .818-.103 1.187-.308a2.05 2.05 0 0 0 .843-.826V8.535h-1.15c-.792 0-1.387.138-1.785.413-.398.276-.598.665-.598 1.17 0 .41.135.737.405.984.275.24.641.36 1.098.36Zm6.39-3.287c0-1.477.345-2.654 1.037-3.533.697-.885 1.62-1.328 2.768-1.328 1.084 0 1.937.378 2.558 1.134l.096-.958h1.925v9.22c0 1.248-.39 2.232-1.169 2.953-.773.72-1.819 1.081-3.137 1.081-.698 0-1.38-.146-2.048-.44-.662-.286-1.166-.664-1.512-1.133l1.01-1.283c.657.779 1.466 1.169 2.427 1.169.709 0 1.268-.194 1.678-.58.41-.381.616-.944.616-1.688v-.641c-.616.685-1.436 1.028-2.461 1.028-1.114 0-2.025-.443-2.734-1.327-.703-.885-1.054-2.11-1.054-3.674Zm2.127.184c0 .955.193 1.708.58 2.26.392.544.934.816 1.626.816.86 0 1.5-.369 1.916-1.107V6.145c-.405-.721-1.038-1.082-1.899-1.082-.703 0-1.25.279-1.643.835-.387.557-.58 1.377-.58 2.461Zm13.798-2.918a5.285 5.285 0 0 0-.87-.07c-.979 0-1.638.375-1.978 1.125V13h-2.135V3.49h2.039l.052 1.064c.516-.826 1.23-1.24 2.145-1.24.305 0 .557.041.756.123l-.009 2.004ZM64.705 13c-.094-.182-.176-.477-.246-.888a3.324 3.324 0 0 1-2.497 1.064c-.955 0-1.734-.273-2.338-.818-.603-.545-.905-1.218-.905-2.021 0-1.014.375-1.79 1.125-2.33.756-.544 1.834-.817 3.235-.817h1.31v-.624c0-.492-.138-.884-.414-1.177-.275-.3-.694-.449-1.257-.449-.486 0-.885.123-1.195.37-.31.24-.466.547-.466.922h-2.136c0-.521.173-1.007.519-1.459.346-.457.814-.814 1.406-1.072.598-.258 1.263-.387 1.995-.387 1.114 0 2.001.282 2.663.844.662.557 1.002 1.342 1.02 2.356v4.289c0 .855.12 1.538.36 2.048V13h-2.18Zm-2.347-1.538c.422 0 .817-.103 1.186-.308a2.05 2.05 0 0 0 .844-.826V8.535h-1.151c-.791 0-1.386.138-1.784.413-.399.276-.598.665-.598 1.17 0 .41.135.737.404.984.276.24.642.36 1.099.36Zm8.771-7.972.061.993c.669-.779 1.583-1.169 2.743-1.169 1.271 0 2.141.487 2.61 1.46.691-.973 1.664-1.46 2.918-1.46 1.049 0 1.828.29 2.338.87.516.58.78 1.436.791 2.567V13h-2.136V6.812c0-.603-.132-1.045-.395-1.327-.264-.28-.7-.422-1.31-.422-.486 0-.885.132-1.195.396a2.05 2.05 0 0 0-.642 1.02L76.921 13h-2.136V6.742c-.029-1.119-.6-1.679-1.714-1.679-.855 0-1.462.35-1.819 1.046V13h-2.136V3.49h2.013Z" fill="#2196F3"/></svg>