<svg width="59" height="15" fill="none" xmlns="http://www.w3.org/2000/svg"><path d="M6.565 1.203V14H4.377V1.203h2.188Zm4.017 0v1.758H.396V1.203h10.186Zm3.946 10.688 2.197-7.4h1.354l-.37 2.214L15.496 14h-1.213l.246-2.11Zm-1.292-7.4 1.714 7.435.14 2.074h-1.353l-2.575-9.51h2.074Zm6.9 7.347 1.66-7.348h2.066L21.296 14h-1.354l.193-2.162ZM18.306 4.49l2.171 7.313.273 2.197h-1.213l-2.241-7.304-.37-2.206h1.38Zm9.624 0V14h-2.127V4.49h2.127Zm-2.268-2.496c0-.322.106-.589.317-.8.217-.216.515-.325.896-.325.375 0 .671.109.888.325.217.211.325.478.325.8 0 .317-.108.58-.325.791-.217.211-.513.317-.888.317-.38 0-.68-.106-.896-.317a1.073 1.073 0 0 1-.317-.79Zm9.308 2.496v1.547h-5.362V4.49h5.362Zm-3.815-2.329h2.118v9.211c0 .293.041.519.123.677a.658.658 0 0 0 .36.307c.153.053.332.08.537.08.146 0 .287-.01.422-.027.134-.017.243-.035.325-.053l.009 1.618c-.176.052-.381.1-.615.14a4.52 4.52 0 0 1-.791.062 3.1 3.1 0 0 1-1.292-.255 1.902 1.902 0 0 1-.88-.853c-.21-.392-.316-.914-.316-1.564V2.16Zm10.169 2.33v1.546h-5.362V4.49h5.362ZM37.51 2.16h2.119v9.211c0 .293.04.519.123.677a.657.657 0 0 0 .36.307c.152.053.33.08.536.08.146 0 .287-.01.422-.027s.243-.035.325-.053l.009 1.618c-.176.052-.381.1-.615.14a4.52 4.52 0 0 1-.791.062 3.1 3.1 0 0 1-1.292-.255 1.903 1.903 0 0 1-.88-.853c-.21-.392-.316-.914-.316-1.564V2.16Zm10.002 12.015c-.703 0-1.339-.114-1.907-.343a4.21 4.21 0 0 1-1.442-.976 4.324 4.324 0 0 1-.905-1.467 5.14 5.14 0 0 1-.316-1.82V9.22c0-.744.108-1.418.325-2.022a4.59 4.59 0 0 1 .905-1.547 3.89 3.89 0 0 1 1.371-.993 4.263 4.263 0 0 1 1.714-.343c.68 0 1.274.115 1.784.343.51.229.932.551 1.266.967.34.41.592.9.756 1.468.17.568.255 1.195.255 1.88v.906H43.97v-1.52h5.256V8.19a2.975 2.975 0 0 0-.229-1.072 1.822 1.822 0 0 0-.624-.808c-.281-.206-.656-.308-1.125-.308a1.91 1.91 0 0 0-.94.228 1.86 1.86 0 0 0-.677.642 3.377 3.377 0 0 0-.422 1.02c-.094.392-.14.835-.14 1.327v.351c0 .416.055.803.166 1.16.118.352.288.66.51.923.223.264.492.472.809.624.316.147.677.22 1.081.22.51 0 .964-.102 1.362-.307a3.123 3.123 0 0 0 1.037-.87l1.117 1.08a4.354 4.354 0 0 1-.8.862c-.328.27-.73.489-1.204.659-.47.17-1.014.255-1.635.255ZM55.457 6.3V14h-2.118V4.49h2.021l.097 1.81Zm2.91-1.872-.018 1.968a5.51 5.51 0 0 0-.861-.07 2.67 2.67 0 0 0-.959.158c-.275.1-.507.246-.694.44a1.934 1.934 0 0 0-.422.685c-.1.27-.158.572-.176.906l-.483.035c0-.598.058-1.152.175-1.661.118-.51.293-.958.528-1.345.24-.387.539-.689.896-.905a2.405 2.405 0 0 1 1.257-.326c.13 0 .267.012.413.036.153.023.267.05.343.079Z" fill="#2196F3"/></svg>